<?xml version="1.0" encoding="iso-8859-1"?>
<!-- Generator: Adobe Illustrator 19.0.0, SVG Export Plug-In . SVG Version: 6.00 Build 0)  -->
<svg xmlns="http://www.w3.org/2000/svg" xmlns:xlink="http://www.w3.org/1999/xlink" version="1.1" id="Capa_1" x="0px" y="0px" viewBox="0 0 512 512" style="enable-background:new 0 0 512 512;" xml:space="preserve">
<g>
  <g>
    <path d="M425.008,466.511l-14.258-83.127c-0.701-4.083-4.573-6.824-8.66-6.125c-4.083,0.7-6.824,4.578-6.124,8.66l14.258,83.128    c0.947,5.521-1.193,10.784-5.726,14.076c-4.532,3.293-10.199,3.703-15.157,1.096l-119.663-62.91    c-8.564-4.502-18.79-4.503-27.355,0l-119.663,62.91c-4.959,2.607-10.625,2.197-15.157-1.096    c-4.532-3.292-6.673-8.555-5.726-14.076L124.631,335.8c1.635-9.537-1.525-19.262-8.453-26.016l-96.81-94.366    c-4.011-3.91-5.373-9.425-3.642-14.753c1.732-5.327,6.075-8.989,11.619-9.795l71.394-10.374c4.099-0.595,6.939-4.401,6.343-8.5    c-0.595-4.099-4.397-6.938-8.5-6.343l-71.394,10.374c-11.153,1.621-20.244,9.286-23.727,20.004s-0.633,22.263,7.438,30.129    l96.809,94.366c3.393,3.308,4.94,8.07,4.139,12.739L86.993,466.511c-1.905,11.108,2.575,22.124,11.693,28.748    c9.118,6.624,20.978,7.481,30.954,2.237l119.663-62.911c4.194-2.204,9.201-2.205,13.394,0l119.663,62.911    c9.851,5.178,21.953,4.303,30.954-2.237C422.433,488.634,426.913,477.619,425.008,466.511z" />
  </g>
</g>
<g>
  <g>
    <path d="M510.54,196.031c-3.483-10.719-12.574-18.384-23.728-20.005l-133.787-19.439c-4.688-0.682-8.739-3.625-10.836-7.874    l-59.83-121.232c-4.988-10.106-15.087-16.384-26.357-16.384s-21.369,6.278-26.357,16.384l-59.831,121.232    c-2.097,4.249-6.147,7.191-10.836,7.873l-32.394,4.707c-4.099,0.596-6.939,4.401-6.343,8.5c0.596,4.099,4.395,6.941,8.5,6.343    l32.394-4.707c9.576-1.391,17.849-7.402,22.13-16.079l59.831-121.232c2.479-5.023,7.304-8.022,12.906-8.022    c5.602,0,10.427,2.999,12.906,8.022l59.832,121.232c4.283,8.676,12.556,14.687,22.13,16.078l133.787,19.44    c5.544,0.805,9.888,4.467,11.619,9.795c1.731,5.328,0.37,10.843-3.643,14.753l-96.81,94.367    c-6.928,6.753-10.088,16.479-8.453,26.016l3.451,20.119c0.627,3.654,3.797,6.233,7.383,6.233c0.421,0,0.848-0.035,1.277-0.109    c4.083-0.701,6.824-4.578,6.124-8.66l-3.451-20.118c-0.801-4.67,0.747-9.432,4.139-12.739l96.809-94.364    C511.172,218.295,514.023,206.75,510.54,196.031z" />
  </g>
</g>
</svg>
