<svg id="workspace" xmlns="http://www.w3.org/2000/svg" xmlns:xlink="http://www.w3.org/1999/xlink" style="text-rendering: geometricPrecision; cursor: auto;" viewBox="0 0 850 300"><desc>Created with Snap</desc><defs><linearGradient x1="0" y1="0.5" x2="1" y2="0.5" id="linearGradientSjj99zzcn47"><stop offset="0%" stop-color="#ffc400"></stop><stop offset="100%" stop-color="#ffc400"></stop></linearGradient><linearGradient x1="0" y1="0.5" x2="1" y2="0.5" id="linearGradientSjj99zzcn4d"><stop offset="0%" stop-color="#e84723"></stop><stop offset="100%" stop-color="#e84723"></stop></linearGradient><linearGradient x1="0" y1="0.5" x2="1" y2="0.5" id="linearGradientSjj99zzcn67"><stop offset="0%" stop-color="#e36bb1"></stop><stop offset="100%" stop-color="#e36bb1"></stop></linearGradient><linearGradient x1="0" y1="0.5" x2="1" y2="0.5" id="linearGradientSjj99zzcn8v"><stop offset="0%" stop-color="#8dcaff"></stop><stop offset="100%" stop-color="#8dcaff"></stop></linearGradient><linearGradient x1="0" y1="0.5" x2="1" y2="0.5" id="linearGradientSjj99zzcn8y"><stop offset="0%" stop-color="#000000"></stop><stop offset="100%" stop-color="#000000"></stop></linearGradient><linearGradient x1="0" y1="0.5" x2="1" y2="0.5" id="linearGradientSjj99zzcn91"><stop offset="0%" stop-color="#000000"></stop><stop offset="100%" stop-color="#000000"></stop></linearGradient><linearGradient x1="0" y1="0.5" x2="1" y2="0.5" id="linearGradientSjj99zzcn94"><stop offset="0%" stop-color="#000000"></stop><stop offset="100%" stop-color="#000000"></stop></linearGradient><linearGradient x1="0" y1="0.5" x2="1" y2="0.5" id="linearGradientSjj99zzcn97"><stop offset="0%" stop-color="#000000"></stop><stop offset="100%" stop-color="#000000"></stop></linearGradient><linearGradient x1="0" y1="0.5" x2="1" y2="0.5" id="linearGradientSjj99zzcnd1"><stop offset="0%" stop-color="#ffffff"></stop><stop offset="100%" stop-color="#ffffff"></stop></linearGradient></defs><g class="background-part"><rect x="0" y="0" width="903" height="341" fill="rgba(255,255,255,0)" style=""></rect></g><g class="selector-part"></g><g class="selector-part"><rect x="0" y="0" width="903" height="341" fill="rgba(255,255,255,0)" style="transition: 0.6s;"></rect></g><rect x="0" y="0" width="0" height="0" fill="rgba(168,202,236,0.5)" stroke="#3399ff" style="stroke-width: 1px;"></rect><g class="selector-part" transform="matrix(1,0,0,1,-5,162)"><rect x="0" y="0" width="0" height="0" fill="rgba(255,255,255,0)" style="cursor: move;"></rect></g><g class="svg-clip svg-visible" transform="matrix(0.6846,0,0,-0.6846,204.6713,171.4554)" style="cursor: move; opacity: 1;"><rect x="0" y="0" width="185" height="162" fill="none" class="svg-hitbox" style=""></rect><svg width="185.988" height="162.359" viewBox="-4.609,3,185.988,162.359" class="thumb"><desc>Created with Snap</desc><defs></defs><g></g><g></g><g><polygon points="88.385,8 0.391,160.359 176.379,160.359 " fill="url('#linearGradientSjj99zzcn67')"></polygon></g></svg></g><g class="svg-clip svg-visible" transform="matrix(0.6846,0,0,0.6846,322.6713,54.5446)" style="cursor: move; opacity: 1;"><rect x="0" y="0" width="185" height="162" fill="none" class="svg-hitbox" style=""></rect><svg width="185.988" height="162.359" viewBox="-4.609,3,185.988,162.359" class="thumb"><desc>Created with Snap</desc><defs></defs><g></g><g></g><g><polygon points="88.385,8 0.391,160.359 176.379,160.359 " fill="url('#linearGradientSjj99zzcn47')"></polygon></g></svg></g><g class="svg-clip svg-visible" transform="matrix(0.6846,0,0,0.6846,535.6713,52.5446)" style="cursor: move; opacity: 1;"><rect x="0" y="0" width="185" height="162" fill="none" class="svg-hitbox" style=""></rect><svg width="185.988" height="162.359" viewBox="-4.609,3,185.988,162.359" class="thumb"><desc>Created with Snap</desc><defs></defs><g></g><g></g><g><polygon points="88.385,8 0.391,160.359 176.379,160.359 " fill="url('#linearGradientSjj99zzcn8v')"></polygon></g></svg></g><g class="svg-clip svg-visible" transform="matrix(0.6846,0,0,-0.6846,425.6713,168.4554)" style="cursor: move; opacity: 1;"><rect x="0" y="0" width="185" height="162" fill="none" class="svg-hitbox" style=""></rect><svg width="185.988" height="162.359" viewBox="-4.609,3,185.988,162.359" class="thumb"><desc>Created with Snap</desc><defs></defs><g></g><g></g><g><polygon points="88.385,8 0.391,160.359 176.379,160.359 " fill="url('#linearGradientSjj99zzcn4d')"></polygon></g></svg></g><g class="svg-clip svg-visible" transform="matrix(2.0446,0,0,2.0446,412.4376,47.6162)" style="cursor: move; opacity: 1;"><rect x="0" y="0" width="70" height="62" fill="none" class="svg-hitbox" style=""></rect><svg width="70.02499999999999" height="62.82261904761904" viewBox="13.275000000000002,18.041666666666668,70.02499999999999,62.82261904761904"><desc>Created with Snap</desc><defs></defs><g></g><g></g><g><path fill="url('#linearGradientSjj99zzcn8y')" stroke="none" d=" M 76.8 23.05 L 70.65 23.05 20.05 23.05 Q 19.5 23 19.1 23.25 19 23.3 18.85 23.45 18.45 23.75 18.3 24.35 18.2 24.8 18.5 25.35 L 21.45 30.7 46.35 75 Q 46.85 75.7 47.55 75.8 48.15 75.95 48.5 75.75 L 49.4 74.85 77.65 26.15 Q 77.8 26.1 78 25.55 78.3 25.1 78.3 24.65 78.3 24.55 78.3 24.5 78.3 24.25 78.15 24.05 77.95 23.5 77.55 23.25 77.4 23.15 77.15 23.05 76.95 23.05 76.8 23.05 M 73.45 27.95 L 73.05 28.75 57.6 54.6 55.8 53.3 41.5 43.4 73.45 27.95 M 71.25 25.95 L 71.7 26 32.6 44.35 22.35 26.1 71.25 25.95 M 34.05 47 L 38.45 44.9 55.95 57.1 Q 56 57.2 56.1 57.2 L 47.8 71.55 34.05 47 Z"></path></g></svg></g><g class="svg-clip svg-visible" transform="matrix(2.0446,0,0,2.0446,307.4376,47.6162)" style="cursor: move; opacity: 1;"><rect x="0" y="0" width="70" height="62" fill="none" class="svg-hitbox" style=""></rect><svg width="70.47142857142856" height="62.91" viewBox="17.07857142857143,14.939999999999998,70.47142857142856,62.91"><desc>Created with Snap</desc><defs></defs><g></g><g></g><g><path fill="url('#linearGradientSjj99zzcn91')" stroke="none" d=" M 82.55 71 Q 82.55 70.8 82.4 70.6 82.05 69.8 81.9 69.75 L 55.85 24.6 Q 54.15 21.6 53.7 21.1 53.55 20.6 52.8 20.1 52.35 19.9 51.85 19.95 51.1 20.1 50.65 20.7 L 41.75 36.45 24.15 66.6 Q 22.4 69.35 22.15 70.85 L 22.1 71.25 22.1 71.3 Q 21.95 72.3 22.85 72.75 L 23.65 72.85 65.7 72.55 81.8 72.2 82.3 72.05 82.4 71.85 Q 82.55 71.7 82.55 71 M 45 36.95 L 52.1 24.5 78.25 69.3 64.1 69.3 52.8 49.6 Q 46.8 39.65 45.45 37.55 45.25 37.2 45 36.95 M 43.2 39.9 L 49.1 49.2 60.45 69.25 46.1 69.25 37.15 53.45 Q 36.45 52.1 36.2 51.95 L 43.2 39.9 M 26.5 69.3 L 34.8 55.6 42.8 69 28.1 69.3 Q 27.2 69.3 26.5 69.3 Z"></path></g></svg></g><g class="svg-clip svg-visible" transform="matrix(2.0446,0,0,2.0446,201.393,47.6162)" style="cursor: move; opacity: 1;"><rect x="0" y="0" width="72" height="62" fill="none" class="svg-hitbox" style=""></rect><svg width="72.79516129032257" height="62.93333333333334" viewBox="12.80483870967742,18.5,72.79516129032257,62.93333333333334"><desc>Created with Snap</desc><defs></defs><g></g><g></g><g><path fill="url('#linearGradientSjj99zzcn94')" stroke="none" d=" M 78.45 23.55 Q 77.7 23.5 76.65 23.5 L 20.1 23.55 Q 19.35 23.4 18.45 23.85 17.45 24.55 18 25.8 L 46.7 75.3 Q 47 76.25 47.8 76.3 48.3 76.5 48.4 76.4 L 48.85 76.3 Q 49.35 76.25 50.05 75.3 L 79.95 26.8 Q 81.25 25.15 79.95 23.9 79.75 23.65 78.45 23.55 M 74.6 29.7 L 74.4 30.1 59.65 53.9 37.95 53.9 22.15 26.6 76.6 26.6 74.6 29.7 M 57.65 57 L 48.35 72.05 39.7 57 57.65 57 Z"></path></g></svg></g><g class="svg-clip svg-visible" transform="matrix(2.0446,0,0,-2.0446,518.4376,174.3838)" style="cursor: move; opacity: 1;"><rect x="0" y="0" width="70" height="62" fill="none" class="svg-hitbox" style=""></rect><svg width="70.47142857142859" height="62.91" viewBox="16.05,17.95,70.47142857142859,62.91"><desc>Created with Snap</desc><defs></defs><g></g><g></g><g><path fill="url('#linearGradientSjj99zzcn97')" stroke="none" d=" M 81.5 24.55 L 81.5 24.5 Q 81.65 23.5 80.75 23.05 L 79.95 22.95 37.9 23.25 21.8 23.6 21.3 23.75 21.2 23.95 Q 21.05 24.1 21.05 24.8 21.05 25 21.2 25.2 21.55 26 21.7 26.05 L 47.75 71.2 Q 49.45 74.2 49.9 74.7 50.05 75.2 50.8 75.7 51.25 75.9 51.75 75.85 52.5 75.7 52.95 75.1 L 61.85 59.35 79.45 29.2 Q 81.2 26.45 81.45 24.95 L 81.5 24.55 M 43.15 26.55 L 57.5 26.55 66.45 42.35 Q 67.15 43.7 67.4 43.85 L 60.4 55.9 54.5 46.6 43.15 26.55 M 75.5 26.5 Q 76.4 26.5 77.1 26.5 L 68.8 40.2 60.8 26.8 75.5 26.5 M 25.35 26.5 L 39.5 26.5 50.8 46.2 Q 56.8 56.15 58.15 58.25 58.35 58.6 58.6 58.85 L 51.5 71.3 25.35 26.5 Z"></path></g></svg></g><g class="svg-text svg-visible" transform="matrix(1.0223,0,0,1.0223,432,166)" style="pointer-events: fill; cursor: move; opacity: 1;"><path fill="none" d="M-393.8125,105.71875 C-20,104.71875 20,104.71875 393.8125,105.71875" style=""></path><text x="0" y="0" fill="url('#linearGradientSjj99zzcnd1')" xml:space="preserve" dy="94.2890625" style="font-size: 100px; font-weight: bold; font-family: &quot;Source Sans Pro&quot;; text-anchor: middle;">Giphy less sparkly</text><rect x="0" y="0" width="0" height="0"></rect></g><g><rect x="0" y="0" width="0" height="0" fill="rgba(255,136,0,0.1)" stroke="#ff8800" style="stroke-width: 1px;"></rect></g><g class="selector-part" transform="matrix(1,0,0,1,-5,162)"><rect x="0" y="0" width="0" height="0" fill="none" stroke="#2390bb" style="stroke-width: 2px;"></rect><g transform="matrix(0.5,0,0,0.5,0,0)"><svg version="1.1" id="Calque_1" xmlns="http://www.w3.org/2000/svg" xmlns:xlink="http://www.w3.org/1999/xlink" x="860.5" y="-71px" width="28.94px" height="30px" viewBox="0 -15 28.94 30" enable-background="new 0 -15 28.94 30" xml:space="preserve" style="cursor: pointer;">
<g>
  <path fill="rgba(0,0,0,0)" d="M23.355-9.979c-0.352-0.263-0.712-0.511-1.084-0.739L20.34-7.486c0.317,0.195,0.629,0.414,0.929,0.646
    L23.355-9.979z" style=""></path>
  <path fill="rgba(0,0,0,0)" d="M28.894,0.081L25.092-0.13c0.292,2.317-0.217,4.718-1.539,6.756l-0.037-0.021
    c-0.376,0.583-0.821,1.137-1.335,1.648c-3.808,3.809-9.902,3.942-13.871,0.396C8.282,8.623,8.255,8.602,8.227,8.576
    C8.143,8.498,8.059,8.421,7.976,8.339c-0.052-0.051-0.104-0.1-0.153-0.152C7.8,8.163,7.776,8.14,7.753,8.115
    c-0.084-0.091-0.167-0.18-0.25-0.271v0.002C4.312,4.293,4.087-0.98,6.821-4.782l4.123,4.124l3.401-14.306L0.037-11.566l4.102,4.098
    C-0.064-2.14,0.193,5.554,4.917,10.587l0,0c0.012,0.016,0.023,0.025,0.033,0.037c0.091,0.098,0.181,0.199,0.278,0.293
    c0.021,0.023,0.047,0.043,0.07,0.068c0.075,0.074,0.148,0.146,0.225,0.22c0.051,0.045,0.099,0.086,0.15,0.133
    c0.053,0.047,0.104,0.094,0.156,0.14c0.144,0.13,0.291,0.257,0.439,0.375c0.01,0.012,0.018,0.016,0.027,0.023
    c5.574,4.563,13.804,4.115,18.842-1.194C27.94,7.722,29.185,3.851,28.894,0.081z" style=""></path>
  <path fill="rgba(0,0,0,0)" d="M24.122-3.353l3.544-1.319c-0.426-0.932-0.962-1.826-1.611-2.662L22.88-5.276
    C23.373-4.675,23.79-4.027,24.122-3.353z" style=""></path>
</g>
<desc>Created with Snap</desc><defs></defs><circle cx="14.5" cy="0" r="15" fill="rgba(0,0,0,0)" style=""></circle></svg></g><rect x="437.5" y="-21" width="0" height="21" fill="rgba(255,255,255,0)" stroke="#2390bb" style="stroke-width: 1px; cursor: pointer;"></rect><circle cx="875" cy="138" r="0" fill="#ffffff" stroke="#2390bb" style="stroke-width: 2px; cursor: se-resize;"></circle><circle cx="0" cy="138" r="0" fill="#ffffff" stroke="#2390bb" style="stroke-width: 2px; cursor: sw-resize;"></circle><circle cx="875" cy="0" r="0" fill="#ffffff" stroke="#2390bb" style="stroke-width: 2px; cursor: ne-resize;"></circle><circle cx="0" cy="0" r="0" fill="#ffffff" stroke="#2390bb" style="stroke-width: 2px; cursor: nw-resize;"></circle><circle cx="438" cy="138" r="0" fill="#ffffff" stroke="#2390bb" style="stroke-width: 2px; cursor: s-resize;"></circle><circle cx="438" cy="0" r="0" fill="#ffffff" stroke="#2390bb" style="stroke-width: 2px; cursor: n-resize;"></circle><circle cx="0" cy="69" r="0" fill="#ffffff" stroke="#2390bb" style="stroke-width: 2px; cursor: w-resize;"></circle><circle cx="875" cy="69" r="0" fill="#ffffff" stroke="#2390bb" style="stroke-width: 2px; cursor: e-resize;"></circle><path stroke="#ff0000" fill="none" style="stroke-width: 3px;"></path><line x1="0" x2="0" y1="0" y2="0" fill="rgba(255,255,255,0)" stroke="#2390bb" style="stroke-width: 1px;"></line><line x1="0" x2="0" y1="0" y2="0" fill="rgba(255,255,255,0)" stroke="#2390bb" style="stroke-width: 1px;"></line><circle cx="0" cy="0" r="0" fill="#ff0000" stroke="#2390bb" style="stroke-width: 2px; cursor: pointer;"></circle><circle cx="0" cy="0" r="0" fill="#ffa500" stroke="#2390bb" style="stroke-width: 2px; cursor: pointer;"></circle><circle cx="0" cy="0" r="0" fill="#ffa500" stroke="#2390bb" style="stroke-width: 2px; cursor: pointer;"></circle><circle cx="0" cy="0" r="0" fill="#ff0000" stroke="#2390bb" style="stroke-width: 2px; cursor: pointer;"></circle><g style="cursor: pointer; visibility: hidden; opacity: 0;" transform="matrix(1,0,0,1,-50,-15)"><rect x="0" y="0" width="30" height="30" fill="#2390bb" rx="5" ry="5" style=""></rect><rect x="6" y="6" width="18" height="4" fill="#ffffff" style=""></rect><rect x="6" y="13" width="18" height="4" fill="#ffffff" style=""></rect><rect x="6" y="20" width="18" height="4" fill="#ffffff" style=""></rect></g></g></svg>
