<?xml version="1.0" encoding="iso-8859-1"?>
<!-- Generator: Adobe Illustrator 19.0.0, SVG Export Plug-In . SVG Version: 6.00 Build 0)  -->
<svg version="1.1" id="Layer_1" xmlns="http://www.w3.org/2000/svg" xmlns:xlink="http://www.w3.org/1999/xlink" x="0px" y="0px"
   viewBox="0 0 511.999 511.999" style="enable-background:new 0 0 511.999 511.999;" xml:space="preserve">
<rect x="173.192" y="265.608" transform="matrix(-0.7071 0.7071 -0.7071 -0.7071 583.1099 340.3217)" style="fill:#146A8A;" width="95.76" height="50.637"/>
<polygon style="fill:#F7B93F;" points="182.216,286.023 0,468.239 21.881,490.121 120.942,406.964 204.098,307.904 "/>
<rect x="-4.919" y="394.478" transform="matrix(-0.7071 0.7071 -0.7071 -0.7071 501.4294 612.2028)" style="fill:#F79A30;" width="257.685" height="30.945"/>
<path style="fill:#82C8DB;" d="M238.262,46.968c-62.622,62.622-62.622,164.151,0,226.771l129.3-97.472l97.472-129.3
  C402.413-15.653,300.884-15.653,238.262,46.968z"/>
<path style="fill:#62B3CD;" d="M465.034,46.968L238.262,273.74c62.622,62.622,164.151,62.622,226.771,0
  S527.655,109.589,465.034,46.968z"/>
<path style="fill:#9EF3D3;" d="M441.165,70.837l-179.03,179.03c49.437,49.437,129.593,49.437,179.03,0
  S490.601,120.274,441.165,70.837z"/>
<path style="fill:#C7FFEA;" d="M441.165,70.837c-49.436-49.437-129.593-49.437-179.03,0
  c-49.433,49.433-49.436,129.586-0.007,179.022c36.259,36.259,105.731,25.573,155.166-23.864
  C466.73,176.56,477.417,107.089,441.165,70.837z"/>
<g>
</g>
<g>
</g>
<g>
</g>
<g>
</g>
<g>
</g>
<g>
</g>
<g>
</g>
<g>
</g>
<g>
</g>
<g>
</g>
<g>
</g>
<g>
</g>
<g>
</g>
<g>
</g>
<g>
</g>
</svg>
